<mxfile host="app.diagrams.net" modified="2021-08-28T10:02:48.236Z" agent="5.0 (Windows NT 10.0; Win64; x64) AppleWebKit/537.36 (KHTML, like Gecko) Chrome/92.0.4515.131 Safari/537.36" etag="2Snyxcw_-E5KE4L840Ou" version="15.0.3" type="github">
  <diagram id="wBnU-LHKZ3bgxqqFrf4i" name="第 1 页">
    <mxGraphModel dx="1221" dy="676" grid="0" gridSize="10" guides="1" tooltips="1" connect="1" arrows="1" fold="1" page="1" pageScale="1" pageWidth="1169" pageHeight="826" math="0" shadow="0">
      <root>
        <mxCell id="0" />
        <mxCell id="1" parent="0" />
        <mxCell id="4fDobWMgoghwHVOhCRGs-1" value="这是&lt;br&gt;归一化因子矩阵，每个边对应一列数据" style="rounded=0;whiteSpace=wrap;html=1;" vertex="1" parent="1">
          <mxGeometry x="186" y="203" width="634" height="43" as="geometry" />
        </mxCell>
        <mxCell id="4fDobWMgoghwHVOhCRGs-2" value="#Edge" style="text;html=1;strokeColor=none;fillColor=none;align=center;verticalAlign=middle;whiteSpace=wrap;rounded=0;" vertex="1" parent="1">
          <mxGeometry x="483" y="168" width="40" height="20" as="geometry" />
        </mxCell>
        <mxCell id="4fDobWMgoghwHVOhCRGs-3" value="1" style="text;html=1;strokeColor=none;fillColor=none;align=center;verticalAlign=middle;whiteSpace=wrap;rounded=0;" vertex="1" parent="1">
          <mxGeometry x="117" y="214.5" width="40" height="20" as="geometry" />
        </mxCell>
        <mxCell id="4fDobWMgoghwHVOhCRGs-9" value="这是Edge_index矩阵" style="rounded=0;whiteSpace=wrap;html=1;" vertex="1" parent="1">
          <mxGeometry x="186" y="315" width="634" height="86" as="geometry" />
        </mxCell>
        <mxCell id="4fDobWMgoghwHVOhCRGs-10" value="#Edge" style="text;html=1;strokeColor=none;fillColor=none;align=center;verticalAlign=middle;whiteSpace=wrap;rounded=0;" vertex="1" parent="1">
          <mxGeometry x="483" y="291" width="40" height="20" as="geometry" />
        </mxCell>
        <mxCell id="4fDobWMgoghwHVOhCRGs-11" value="2" style="text;html=1;strokeColor=none;fillColor=none;align=center;verticalAlign=middle;whiteSpace=wrap;rounded=0;" vertex="1" parent="1">
          <mxGeometry x="117" y="348" width="40" height="20" as="geometry" />
        </mxCell>
        <mxCell id="4fDobWMgoghwHVOhCRGs-12" value="这是节点的嵌入表示矩阵&lt;br&gt;每一列对应一个节点的嵌入，这里是32维" style="rounded=0;whiteSpace=wrap;html=1;" vertex="1" parent="1">
          <mxGeometry x="186" y="496" width="391" height="217" as="geometry" />
        </mxCell>
        <mxCell id="4fDobWMgoghwHVOhCRGs-14" value="#Node" style="text;html=1;strokeColor=none;fillColor=none;align=center;verticalAlign=middle;whiteSpace=wrap;rounded=0;" vertex="1" parent="1">
          <mxGeometry x="361.5" y="468" width="40" height="20" as="geometry" />
        </mxCell>
        <mxCell id="4fDobWMgoghwHVOhCRGs-15" value="32&lt;br&gt;" style="text;html=1;strokeColor=none;fillColor=none;align=center;verticalAlign=middle;whiteSpace=wrap;rounded=0;" vertex="1" parent="1">
          <mxGeometry x="127" y="594.5" width="40" height="20" as="geometry" />
        </mxCell>
      </root>
    </mxGraphModel>
  </diagram>
</mxfile>
